# xmcd
#
# Track frame offsets:
#	225
#	13784
#	27218
#	39538
#	49387
#	59453
#	70905
#	83607
#	93257
#	103438
#	116174
#	131255
#	138012
#	151169
#	162392
#	180621
#
# Disc length: 2539 seconds
#
# Revision: 3
# Processed by: cddbd v1.5.2PL0 Copyright (c) Steve Scherf et al.
# Submitted via: audiograbber 1.83.01
#
DISCID=d409e810
DTITLE=Various Artist - Country Man CD 2
DYEAR=1998
DGENRE=Country
TTITLE0=George Jones - Almost Persuaded
TTITLE1=Don Williams - Where Do We Go From Here
TTITLE2=Jim Reeves - Four Walls
TTITLE3=Freddy Fender - But I Do
TTITLE4=George Jones - Why Baby Why
TTITLE5=Hank Locklin - Send Me The Pillow You Dream On
TTITLE6=Kenny Rogers - Reuben James
TTITLE7=Charley Pride - Kiss An Angel Goodmorning
TTITLE8=Merle Haggard - Mama Tried
TTITLE9=Johnny Cash - Ring Of Fire
TTITLE10=Jerry Lee Lewis - Cold, Cold Heart
TTITLE11=Don Williams - Lord I Hope This Day Is Good
TTITLE12=George Jones - Hello Darlin´
TTITLE13=Charley Pride - Louisiana Man
TTITLE14=Bobby Bare - The Jogger
TTITLE15=Willie Nelson - Broken Promises
EXTD=
EXTT0=
EXTT1=
EXTT2=
EXTT3=
EXTT4=
EXTT5=
EXTT6=
EXTT7=
EXTT8=
EXTT9=
EXTT10=
EXTT11=
EXTT12=
EXTT13=
EXTT14=
EXTT15=
PLAYORDER=
